<svg width="698" height="684" viewBox="0 0 698 684" fill="none" xmlns="http://www.w3.org/2000/svg">
<g clip-path="url(#clip0_498_116)">
<mask id="mask0_498_116" style="mask-type:luminance" maskUnits="userSpaceOnUse" x="0" y="0" width="698" height="684">
<path d="M0 0H698V684H0V0Z" fill="white"/>
<path d="M229.343 619.094C123.791 619.094 38.2238 533.407 38.2238 427.707C38.2238 322.007 123.791 236.32 229.343 236.32C334.895 236.32 420.462 322.007 420.462 427.707C420.462 533.407 334.895 619.094 229.343 619.094Z" fill="black"/>
</mask>
<g mask="url(#mask0_498_116)">
<path d="M541.781 124.816H124.643C108.024 124.816 94.7286 138.13 94.7286 154.773V502.597C94.7286 519.24 108.024 532.554 124.643 532.554H541.781C558.4 532.554 571.695 519.24 571.695 502.597V154.773C571.695 138.13 558.4 124.816 541.781 124.816Z" stroke="#7796CC" stroke-width="13" stroke-linecap="round" stroke-linejoin="round"/>
<path d="M570.033 226.336H94.7287" stroke="#7796CC" stroke-width="13" stroke-linecap="round"/>
<path d="M511.867 189.721C504.524 189.721 498.571 183.761 498.571 176.408C498.571 169.055 504.524 163.094 511.867 163.094C519.209 163.094 525.162 169.055 525.162 176.408C525.162 183.761 519.209 189.721 511.867 189.721Z" fill="#22C55E"/>
<path d="M460.348 189.721C453.005 189.721 447.052 183.761 447.052 176.408C447.052 169.055 453.005 163.094 460.348 163.094C467.69 163.094 473.643 169.055 473.643 176.408C473.643 183.761 467.69 189.721 460.348 189.721Z" fill="#22C55E"/>
<path d="M408.829 189.721C401.486 189.721 395.533 183.761 395.533 176.408C395.533 169.055 401.486 163.094 408.829 163.094C416.171 163.094 422.124 169.055 422.124 176.408C422.124 183.761 416.171 189.721 408.829 189.721Z" fill="#22C55E"/>
</g>
<path d="M229.343 595.796C136.641 595.796 61.4905 520.541 61.4905 427.709C61.4905 334.876 136.641 259.621 229.343 259.621C322.045 259.621 397.195 334.876 397.195 427.709C397.195 520.541 322.045 595.796 229.343 595.796Z" stroke="#7796CC" stroke-width="13"/>
<path d="M232.667 369.459C217.063 369.459 204.414 356.792 204.414 341.167C204.414 325.542 217.063 312.875 232.667 312.875C248.27 312.875 260.919 325.542 260.919 341.167C260.919 356.792 248.27 369.459 232.667 369.459Z" fill="#7796CC"/>
<path d="M322.409 382.773C292.495 392.759 262.581 399.416 232.667 399.416C202.752 399.416 172.838 392.759 142.924 382.773" stroke="#7796CC" stroke-width="16" stroke-linecap="round" stroke-linejoin="round"/>
<path d="M254.271 396.087C254.271 387.766 245.962 382.773 232.667 382.773C217.709 382.773 211.062 387.766 211.062 396.087V444.35L176.162 529.226C171.176 542.54 179.486 554.189 194.443 554.189C204.414 554.189 211.062 549.197 214.386 539.211L231.005 492.613L250.948 539.211C254.271 549.197 260.919 554.189 272.552 554.189C287.509 554.189 295.819 542.54 290.833 529.226L255.933 444.35L254.271 396.087Z" fill="#7796CC"/>
</g>
<defs>
<clipPath id="clip0_498_116">
<rect width="698" height="684" fill="white" transform="matrix(-1 0 0 1 698 0)"/>
</clipPath>
</defs>
</svg>
