<svg width="2048" height="684" viewBox="0 0 2048 684" fill="none" xmlns="http://www.w3.org/2000/svg">
<g clip-path="url(#clip0_495_52)">
<mask id="mask0_495_52" style="mask-type:luminance" maskUnits="userSpaceOnUse" x="0" y="0" width="2048" height="684">
<path d="M0 0H2048V684H0V0ZM258 420C258 462.435 274.857 503.131 304.863 533.137C334.869 563.143 375.565 580 418 580C460.435 580 501.131 563.143 531.137 533.137C561.143 503.131 578 462.435 578 420C578 377.565 561.143 336.869 531.137 306.863C501.131 276.857 460.435 260 418 260C375.565 260 334.869 276.857 304.863 306.863C274.857 336.869 258 377.565 258 420Z" fill="white"/>
</mask>
<g mask="url(#mask0_495_52)">
<path d="M143 147H510C527.333 147 536 155.667 536 173V278" stroke="#0852E0" stroke-width="21" stroke-linecap="round" stroke-linejoin="round"/>
<path d="M119 239H536" stroke="#0852E0" stroke-width="20" stroke-linecap="round" stroke-linejoin="round"/>
<path d="M119 239V474C119 489.333 126.667 497 142 497H249" stroke="#0852E0" stroke-width="21" stroke-linecap="round" stroke-linejoin="round"/>
<path d="M143 147C127 147 119 155 119 171V475" stroke="#0852E0" stroke-width="21" stroke-linecap="round" stroke-linejoin="round"/>
</g>
<path d="M166 205C173.18 205 179 199.18 179 192C179 184.82 173.18 179 166 179C158.82 179 153 184.82 153 192C153 199.18 158.82 205 166 205Z" fill="#0852E0"/>
<path d="M212 205C219.18 205 225 199.18 225 192C225 184.82 219.18 179 212 179C204.82 179 199 184.82 199 192C199 199.18 204.82 205 212 205Z" fill="#0852E0"/>
<path d="M258 205C265.18 205 271 199.18 271 192C271 184.82 265.18 179 258 179C250.82 179 245 184.82 245 192C245 199.18 250.82 205 258 205Z" fill="#0852E0"/>
<path d="M418 569C500.29 569 567 502.29 567 420C567 337.71 500.29 271 418 271C335.71 271 269 337.71 269 420C269 502.29 335.71 569 418 569Z" stroke="#0852E0" stroke-width="21" stroke-linecap="round" stroke-linejoin="round"/>
<path d="M418 367C431.807 367 443 355.807 443 342C443 328.193 431.807 317 418 317C404.193 317 393 328.193 393 342C393 355.807 404.193 367 418 367Z" fill="#040D31"/>
<path d="M418 390V449" stroke="#040D31" stroke-width="28" stroke-linecap="round" stroke-linejoin="round"/>
<path d="M340 379L418 396L494 379" stroke="#040D31" stroke-width="22" stroke-linecap="round" stroke-linejoin="round"/>
<path d="M418 449L388 512" stroke="#040D31" stroke-width="24" stroke-linecap="round" stroke-linejoin="round"/>
<path d="M418 449L448 512" stroke="#040D31" stroke-width="24" stroke-linecap="round" stroke-linejoin="round"/>
<path d="M833.99 316.991C835.03 316.991 836.07 317.207 837.11 317.641C838.15 317.987 839.147 318.637 840.1 319.591L857.52 337.921C849.893 347.887 840.317 355.427 828.79 360.541C817.35 365.567 803.787 368.081 788.1 368.081C773.713 368.081 760.8 365.654 749.36 360.801C738.007 355.861 728.343 349.101 720.37 340.521C712.483 331.854 706.417 321.627 702.17 309.841C697.923 297.967 695.8 285.097 695.8 271.231C695.8 257.104 698.097 244.147 702.69 232.361C707.283 220.487 713.74 210.261 722.06 201.681C730.38 193.101 740.347 186.427 751.96 181.661C763.573 176.894 776.357 174.511 790.31 174.511C797.417 174.511 804.09 175.161 810.33 176.461C816.657 177.674 822.55 179.407 828.01 181.661C833.47 183.827 838.497 186.471 843.09 189.591C847.683 192.711 851.757 196.091 855.31 199.731L840.49 219.621C839.537 220.834 838.41 221.961 837.11 223.001C835.81 223.954 833.99 224.431 831.65 224.431C830.09 224.431 828.617 224.084 827.23 223.391C825.843 222.697 824.37 221.874 822.81 220.921C821.25 219.881 819.517 218.797 817.61 217.671C815.79 216.457 813.58 215.374 810.98 214.421C808.467 213.381 805.477 212.514 802.01 211.821C798.63 211.127 794.643 210.781 790.05 210.781C782.77 210.781 776.097 212.124 770.03 214.811C764.05 217.497 758.85 221.441 754.43 226.641C750.097 231.754 746.717 238.081 744.29 245.621C741.95 253.074 740.78 261.611 740.78 271.231C740.78 280.937 742.08 289.561 744.68 297.101C747.367 304.641 750.963 311.011 755.47 316.211C760.063 321.324 765.393 325.224 771.46 327.911C777.527 330.597 784.027 331.941 790.96 331.941C794.947 331.941 798.587 331.767 801.88 331.421C805.173 330.987 808.25 330.337 811.11 329.471C813.97 328.517 816.657 327.304 819.17 325.831C821.683 324.271 824.24 322.321 826.84 319.981C827.88 319.114 829.007 318.421 830.22 317.901C831.433 317.294 832.69 316.991 833.99 316.991ZM912.38 171.391V366.001H872.08V171.391H912.38ZM1023.53 282.411C1023.53 279.204 1023.1 276.084 1022.23 273.051C1021.45 270.017 1020.11 267.331 1018.2 264.991C1016.38 262.564 1013.95 260.614 1010.92 259.141C1007.89 257.667 1004.2 256.931 999.87 256.931C992.244 256.931 986.264 259.141 981.93 263.561C977.597 267.894 974.737 274.177 973.35 282.411H1023.53ZM972.83 305.811C974.13 317.077 977.554 325.267 983.1 330.381C988.647 335.407 995.797 337.921 1004.55 337.921C1009.23 337.921 1013.26 337.357 1016.64 336.231C1020.02 335.104 1023.01 333.847 1025.61 332.461C1028.3 331.074 1030.72 329.817 1032.89 328.691C1035.14 327.564 1037.48 327.001 1039.91 327.001C1043.12 327.001 1045.54 328.171 1047.19 330.511L1058.89 344.941C1054.73 349.707 1050.22 353.607 1045.37 356.641C1040.6 359.587 1035.66 361.927 1030.55 363.661C1025.52 365.307 1020.45 366.434 1015.34 367.041C1010.31 367.734 1005.5 368.081 1000.91 368.081C991.464 368.081 982.58 366.564 974.26 363.531C966.027 360.411 958.79 355.817 952.55 349.751C946.397 343.684 941.5 336.144 937.86 327.131C934.307 318.117 932.53 307.631 932.53 295.671C932.53 286.657 934.047 278.121 937.08 270.061C940.2 262.001 944.62 254.937 950.34 248.871C956.147 242.804 963.124 237.994 971.27 234.441C979.504 230.887 988.777 229.111 999.09 229.111C1008.02 229.111 1016.16 230.497 1023.53 233.271C1030.98 236.044 1037.35 240.074 1042.64 245.361C1048.01 250.647 1052.17 257.147 1055.12 264.861C1058.15 272.487 1059.67 281.154 1059.67 290.861C1059.67 293.894 1059.54 296.364 1059.28 298.271C1059.02 300.177 1058.54 301.694 1057.85 302.821C1057.16 303.947 1056.2 304.727 1054.99 305.161C1053.86 305.594 1052.39 305.811 1050.57 305.811H972.83ZM1149.37 311.141C1141.31 311.487 1134.68 312.181 1129.48 313.221C1124.28 314.261 1120.16 315.561 1117.13 317.121C1114.1 318.681 1111.97 320.457 1110.76 322.451C1109.63 324.444 1109.07 326.611 1109.07 328.951C1109.07 333.544 1110.33 336.794 1112.84 338.701C1115.35 340.521 1119.04 341.431 1123.89 341.431C1129.09 341.431 1133.64 340.521 1137.54 338.701C1141.44 336.881 1145.38 333.934 1149.37 329.861V311.141ZM1076.83 249.911C1084.98 242.717 1093.99 237.387 1103.87 233.921C1113.84 230.367 1124.5 228.591 1135.85 228.591C1144 228.591 1151.32 229.934 1157.82 232.621C1164.41 235.221 1169.95 238.904 1174.46 243.671C1179.05 248.351 1182.56 253.941 1184.99 260.441C1187.42 266.941 1188.63 274.047 1188.63 281.761V366.001H1170.17C1166.36 366.001 1163.45 365.481 1161.46 364.441C1159.55 363.401 1157.95 361.234 1156.65 357.941L1153.79 350.531C1150.41 353.391 1147.16 355.904 1144.04 358.071C1140.92 360.237 1137.67 362.101 1134.29 363.661C1131 365.134 1127.44 366.217 1123.63 366.911C1119.9 367.691 1115.74 368.081 1111.15 368.081C1105 368.081 1099.41 367.301 1094.38 365.741C1089.35 364.094 1085.06 361.711 1081.51 358.591C1078.04 355.471 1075.36 351.614 1073.45 347.021C1071.54 342.341 1070.59 336.967 1070.59 330.901C1070.59 326.047 1071.8 321.151 1074.23 316.211C1076.66 311.184 1080.86 306.634 1086.84 302.561C1092.82 298.401 1100.88 294.934 1111.02 292.161C1121.16 289.387 1133.94 287.827 1149.37 287.481V281.761C1149.37 273.874 1147.72 268.197 1144.43 264.731C1141.22 261.177 1136.63 259.401 1130.65 259.401C1125.88 259.401 1121.98 259.921 1118.95 260.961C1115.92 262.001 1113.19 263.171 1110.76 264.471C1108.42 265.771 1106.12 266.941 1103.87 267.981C1101.62 269.021 1098.93 269.541 1095.81 269.541C1093.04 269.541 1090.7 268.847 1088.79 267.461C1086.88 266.074 1085.32 264.427 1084.11 262.521L1076.83 249.911ZM1252.07 251.991C1256.23 244.711 1261 238.991 1266.37 234.831C1271.83 230.671 1278.07 228.591 1285.09 228.591C1291.16 228.591 1296.1 230.021 1299.91 232.881L1297.31 262.521C1296.88 264.427 1296.14 265.727 1295.1 266.421C1294.15 267.114 1292.8 267.461 1291.07 267.461C1290.38 267.461 1289.47 267.417 1288.34 267.331C1287.21 267.244 1286.04 267.157 1284.83 267.071C1283.62 266.897 1282.36 266.767 1281.06 266.681C1279.85 266.507 1278.72 266.421 1277.68 266.421C1271.79 266.421 1267.06 267.981 1263.51 271.101C1260.04 274.221 1257.1 278.554 1254.67 284.101V366.001H1214.37V231.191H1238.29C1240.28 231.191 1241.93 231.364 1243.23 231.711C1244.62 232.057 1245.74 232.621 1246.61 233.401C1247.56 234.094 1248.26 235.047 1248.69 236.261C1249.21 237.474 1249.64 238.947 1249.99 240.681L1252.07 251.991ZM1631.02 176.591L1572.52 366.001H1532.74L1497.12 248.611C1496.43 246.791 1495.78 244.797 1495.17 242.631C1494.56 240.377 1493.96 238.037 1493.35 235.611C1492.74 238.037 1492.14 240.377 1491.53 242.631C1490.92 244.797 1490.27 246.791 1489.58 248.611L1453.44 366.001H1413.66L1355.16 176.591H1392.08C1395.89 176.591 1399.06 177.457 1401.57 179.191C1404.17 180.924 1405.86 183.221 1406.64 186.081L1432.64 284.881C1433.42 288.001 1434.2 291.424 1434.98 295.151C1435.76 298.791 1436.54 302.604 1437.32 306.591C1438.88 298.444 1440.79 291.207 1443.04 284.881L1473.72 186.081C1474.5 183.654 1476.15 181.487 1478.66 179.581C1481.26 177.587 1484.38 176.591 1488.02 176.591H1501.02C1504.83 176.591 1507.91 177.501 1510.25 179.321C1512.59 181.054 1514.37 183.307 1515.58 186.081L1546 284.881C1548.25 290.947 1550.16 297.837 1551.72 305.551C1552.41 301.651 1553.11 298.011 1553.8 294.631C1554.58 291.164 1555.36 287.914 1556.14 284.881L1582.14 186.081C1582.83 183.567 1584.48 181.357 1587.08 179.451C1589.68 177.544 1592.8 176.591 1596.44 176.591H1631.02ZM1712.01 282.411C1712.01 279.204 1711.58 276.084 1710.71 273.051C1709.93 270.017 1708.59 267.331 1706.68 264.991C1704.86 262.564 1702.43 260.614 1699.4 259.141C1696.37 257.667 1692.68 256.931 1688.35 256.931C1680.72 256.931 1674.74 259.141 1670.41 263.561C1666.08 267.894 1663.22 274.177 1661.83 282.411H1712.01ZM1661.31 305.811C1662.61 317.077 1666.03 325.267 1671.58 330.381C1677.13 335.407 1684.28 337.921 1693.03 337.921C1697.71 337.921 1701.74 337.357 1705.12 336.231C1708.5 335.104 1711.49 333.847 1714.09 332.461C1716.78 331.074 1719.2 329.817 1721.37 328.691C1723.62 327.564 1725.96 327.001 1728.39 327.001C1731.6 327.001 1734.02 328.171 1735.67 330.511L1747.37 344.941C1743.21 349.707 1738.7 353.607 1733.85 356.641C1729.08 359.587 1724.14 361.927 1719.03 363.661C1714 365.307 1708.93 366.434 1703.82 367.041C1698.79 367.734 1693.98 368.081 1689.39 368.081C1679.94 368.081 1671.06 366.564 1662.74 363.531C1654.51 360.411 1647.27 355.817 1641.03 349.751C1634.88 343.684 1629.98 336.144 1626.34 327.131C1622.79 318.117 1621.01 307.631 1621.01 295.671C1621.01 286.657 1622.53 278.121 1625.56 270.061C1628.68 262.001 1633.1 254.937 1638.82 248.871C1644.63 242.804 1651.6 237.994 1659.75 234.441C1667.98 230.887 1677.26 229.111 1687.57 229.111C1696.5 229.111 1704.64 230.497 1712.01 233.271C1719.46 236.044 1725.83 240.074 1731.12 245.361C1736.49 250.647 1740.65 257.147 1743.6 264.861C1746.63 272.487 1748.15 281.154 1748.15 290.861C1748.15 293.894 1748.02 296.364 1747.76 298.271C1747.5 300.177 1747.02 301.694 1746.33 302.821C1745.64 303.947 1744.68 304.727 1743.47 305.161C1742.34 305.594 1740.87 305.811 1739.05 305.811H1661.31ZM1808.6 329.341C1811.63 332.634 1814.93 334.974 1818.48 336.361C1822.03 337.747 1825.63 338.441 1829.27 338.441C1833.08 338.441 1836.59 337.747 1839.8 336.361C1843.01 334.887 1845.74 332.547 1847.99 329.341C1850.33 326.047 1852.15 321.757 1853.45 316.471C1854.75 311.097 1855.4 304.511 1855.4 296.711C1855.4 289.951 1854.88 284.231 1853.84 279.551C1852.89 274.784 1851.41 270.927 1849.42 267.981C1847.51 264.947 1845.09 262.781 1842.14 261.481C1839.28 260.094 1835.99 259.401 1832.26 259.401C1827.32 259.401 1823.03 260.484 1819.39 262.651C1815.75 264.817 1812.15 267.981 1808.6 272.141V329.341ZM1808.6 245.491C1813.8 240.551 1819.48 236.607 1825.63 233.661C1831.87 230.627 1838.8 229.111 1846.43 229.111C1854.06 229.111 1860.99 230.671 1867.23 233.791C1873.47 236.911 1878.8 241.374 1883.22 247.181C1887.64 252.901 1891.02 259.834 1893.36 267.981C1895.79 276.127 1897 285.227 1897 295.281C1897 306.201 1895.61 316.124 1892.84 325.051C1890.07 333.977 1886.12 341.647 1881.01 348.061C1875.98 354.387 1869.96 359.327 1862.94 362.881C1855.92 366.347 1848.16 368.081 1839.67 368.081C1835.6 368.081 1831.96 367.691 1828.75 366.911C1825.54 366.131 1822.6 365.047 1819.91 363.661C1817.22 362.187 1814.75 360.454 1812.5 358.461C1810.33 356.467 1808.21 354.301 1806.13 351.961L1804.7 358.721C1804.01 361.494 1802.88 363.401 1801.32 364.441C1799.76 365.481 1797.68 366.001 1795.08 366.001H1768.3V171.391H1808.6V245.491Z" fill="#040D31"/>
<path d="M1818.69 535.001L1821.64 514.583C1822.55 507.859 1824.31 501.955 1826.93 496.871C1829.56 491.787 1833.86 487.77 1839.85 484.818C1835.99 479.98 1832.47 475.552 1829.27 471.534C1826.07 467.516 1823.45 464.359 1821.4 462.062H1835.05C1837.35 464.769 1839.89 467.926 1842.68 471.534C1845.47 475.142 1848.66 479.241 1852.27 483.833C1853.75 485.883 1855.26 487.975 1856.82 490.107C1858.38 492.239 1859.98 494.411 1861.62 496.625C1865.8 494.411 1868.83 491.336 1870.72 487.4C1872.69 483.464 1873.92 478.872 1874.41 473.624L1875.52 462.062H1886.83L1885.73 473.993C1885.07 480.717 1883.23 486.58 1880.19 491.582C1877.24 496.584 1872.73 500.561 1866.66 503.513C1870.19 508.515 1873.76 513.682 1877.36 519.012C1880.97 524.26 1884.37 529.589 1887.57 535.001H1874.66C1869.9 526.883 1864.98 519.176 1859.9 511.878C1854.89 504.498 1850.02 497.692 1845.26 491.46C1841.08 493.756 1838.13 496.912 1836.4 500.93C1834.76 504.948 1833.58 509.622 1832.84 514.952L1829.89 535.001H1818.69ZM1727.31 535.001L1728.67 525.653H1733.1C1738.59 525.653 1741.34 522.086 1741.34 514.952V471.41H1729.77L1731.13 462.062H1774.05C1790.13 462.062 1798.16 469.77 1798.16 485.186V535.001H1786.85V485.555C1786.85 476.125 1782.3 471.41 1773.19 471.41H1752.65V515.567C1752.65 521.881 1751.14 526.72 1748.1 530.082C1745.07 533.362 1740.68 535.001 1734.94 535.001H1727.31ZM1695.47 535.001V485.555C1695.47 476.125 1690.96 471.41 1681.94 471.41H1656.6L1657.95 462.062H1682.68C1698.75 462.062 1706.78 469.77 1706.78 485.186V535.001H1695.47ZM1539.16 535.001V525.653H1579.5V485.555C1579.5 476.125 1574.95 471.41 1565.85 471.41H1542.85L1544.08 462.062H1566.71C1582.78 462.062 1590.82 469.77 1590.82 485.186V525.653H1599.92L1598.57 535.001H1539.16ZM1509.65 535.001V485.555C1509.65 476.125 1505.14 471.41 1496.12 471.41H1470.78L1472.13 462.062H1496.86C1512.93 462.062 1520.96 469.77 1520.96 485.186V535.001H1509.65ZM1437.7 535.001V471.41H1426.51L1427.86 462.062H1449.02V535.001H1437.7ZM1395.65 535.001V485.555C1395.65 476.125 1391.14 471.41 1382.12 471.41H1356.78L1358.13 462.062H1382.86C1398.93 462.062 1406.96 469.77 1406.96 485.186V535.001H1395.65ZM1331.71 535.001V521.849H1343.42V535.001H1331.71ZM1149.96 535.001L1152.91 514.583C1153.81 507.859 1155.58 501.955 1158.2 496.871C1160.82 491.787 1165.13 487.77 1171.12 484.818C1167.26 479.98 1163.74 475.552 1160.54 471.534C1157.34 467.516 1154.72 464.359 1152.67 462.062H1166.32C1168.61 464.769 1171.16 467.926 1173.94 471.534C1176.73 475.142 1179.93 479.241 1183.54 483.833C1185.01 485.883 1186.53 487.975 1188.09 490.107C1189.65 492.239 1191.25 494.411 1192.89 496.625C1197.07 494.411 1200.1 491.336 1201.99 487.4C1203.96 483.464 1205.19 478.872 1205.68 473.624L1206.79 462.062H1218.1L1216.99 473.993C1216.34 480.717 1214.49 486.58 1211.46 491.582C1208.51 496.584 1204 500.561 1197.93 503.513C1201.46 508.515 1205.02 513.682 1208.63 519.012C1212.24 524.26 1215.64 529.589 1218.84 535.001H1205.92C1201.17 526.883 1196.25 519.176 1191.16 511.878C1186.16 504.498 1181.28 497.692 1176.53 491.46C1172.35 493.756 1169.39 496.912 1167.67 500.93C1166.03 504.948 1164.84 509.622 1164.1 514.952L1161.15 535.001H1149.96ZM1058.58 535.001L1059.93 525.653H1064.36C1069.86 525.653 1072.6 522.086 1072.6 514.952V471.41H1061.04L1062.39 462.062H1105.32C1121.39 462.062 1129.43 469.77 1129.43 485.186V535.001H1118.11V485.555C1118.11 476.125 1113.56 471.41 1104.46 471.41H1083.92V515.567C1083.92 521.881 1082.4 526.72 1079.37 530.082C1076.33 533.362 1071.95 535.001 1066.21 535.001H1058.58ZM1026.74 535.001V485.555C1026.74 476.125 1022.23 471.41 1013.21 471.41H987.867L989.22 462.062H1013.94C1030.02 462.062 1038.05 469.77 1038.05 485.186V535.001H1026.74ZM859.723 471.41L860.953 462.062H902.527C918.599 462.062 926.635 469.77 926.635 485.186V535.001H915.319V485.555C915.319 476.125 910.809 471.41 901.789 471.41H879.895C879.403 472.148 878.87 473.542 878.296 475.592C877.722 477.642 877.435 480.84 877.435 485.186V535.001H866.119V488.016C866.119 484.326 866.447 481.046 867.103 478.176C867.841 475.306 868.948 473.092 870.424 471.534L869.44 471.41H859.723ZM821.604 534.879C820.784 530.123 820.046 525.12 819.39 519.872C818.734 514.542 818.201 509.54 817.791 504.866C817.381 500.11 817.176 496.339 817.176 493.551C817.176 491.009 817.545 488.302 818.283 485.432C819.021 482.562 820.333 479.898 822.219 477.438C824.105 474.895 826.729 472.886 830.091 471.41H811.887V462.062H843.498L842.145 471.41C837.963 472.64 834.847 474.403 832.797 476.699C830.829 478.995 829.558 481.538 828.984 484.326C828.41 487.032 828.164 489.696 828.246 492.32C828.328 494.452 828.533 497.281 828.861 500.807C829.271 504.251 829.722 508.024 830.214 512.124C830.706 516.224 831.198 520.283 831.69 524.301C832.264 528.237 832.797 531.763 833.289 534.879H821.604ZM762.944 535.001L782.624 471.288H730.472L731.825 462.062H795.539L794.555 469.197L774.26 535.001H762.944ZM734.162 558.494V489.122L745.478 488.262V557.879L734.162 558.494ZM692.657 535.001V521.849H704.369V535.001H692.657Z" fill="#0852E0"/>
</g>
<defs>
<clipPath id="clip0_495_52">
<rect width="2048" height="684" fill="white"/>
</clipPath>
</defs>
</svg>
