<svg width="349" height="350" viewBox="0 0 349 350" fill="none" xmlns="http://www.w3.org/2000/svg">
<path d="M174.352 342.675C81.6501 342.675 6.5 267.42 6.5 174.588C6.5 81.7554 81.6501 6.5 174.352 6.5C267.055 6.5 342.205 81.7554 342.205 174.588C342.205 267.42 267.055 342.675 174.352 342.675Z" stroke="#2364D8" stroke-width="13"/>
<path d="M177.676 116.338C162.073 116.338 149.424 103.671 149.424 88.0459C149.424 72.4207 162.073 59.7539 177.676 59.7539C193.279 59.7539 205.928 72.4207 205.928 88.0459C205.928 103.671 193.279 116.338 177.676 116.338Z" fill="#2364D8"/>
<path d="M267.419 129.652C237.505 139.638 207.59 146.295 177.676 146.295C147.762 146.295 117.847 139.638 87.9332 129.652" stroke="#2364D8" stroke-width="16" stroke-linecap="round" stroke-linejoin="round"/>
<path d="M199.281 142.966C199.281 134.645 190.971 129.652 177.676 129.652C162.719 129.652 156.071 134.645 156.071 142.966V191.229L121.171 276.105C116.186 289.419 124.495 301.068 139.452 301.068C149.424 301.068 156.071 296.076 159.395 286.09L176.014 239.492L195.957 286.09C199.281 296.076 205.928 301.068 217.562 301.068C232.519 301.068 240.828 289.419 235.843 276.105L200.943 191.229L199.281 142.966Z" fill="#2364D8"/>
</svg>
